<svg xmlns="http://www.w3.org/2000/svg" xmlns:xlink="http://www.w3.org/1999/xlink" width="127" height="127" viewBox="0 0 127 127">
  <defs>
    <linearGradient id="linear-gradient" x1="0.553" y1="0.534" x2="0.884" y2="0.899" gradientUnits="objectBoundingBox">
      <stop offset="0" stop-color="#3cafa3"/>
      <stop offset="1" stop-color="#1e5852"/>
    </linearGradient>
  </defs>
  <g id="logo" transform="translate(-0.212 -0.212)">
    <rect id="Rectangle" width="97.558" height="97.558" rx="8" transform="translate(36.758 0.212) rotate(22)" fill="url(#linear-gradient)"/>
    <rect id="Rectangle-2" data-name="Rectangle" width="97.425" height="97.425" rx="8" transform="translate(15 15)" fill="#161c23"/>
    <g id="logo-2" data-name="logo" transform="translate(23.735 15)">
      <rect id="logo_background" data-name="logo background" width="73.862" height="83" fill="rgba(0,0,0,0)"/>
      <g id="Group_2" data-name="Group 2" transform="translate(0.622 20.477)">
        <path id="car" d="M58.028,23H51.769L56.554,0h6.079L62.1,2.5A5.6,5.6,0,0,1,64,.591,5.1,5.1,0,0,1,66.523,0h6.571L71.933,5.5H62.9A1.673,1.673,0,0,0,61.9,5.75a1.743,1.743,0,0,0-.514,1.023L58.029,23ZM47.21,23H27.495a3.738,3.738,0,0,1-2.46-.658,2.484,2.484,0,0,1-.759-1.978A8.563,8.563,0,0,1,24.5,18.68l1.118-5.453a12.474,12.474,0,0,1,.626-2.136,3.842,3.842,0,0,1,.894-1.364,3.025,3.025,0,0,1,1.3-.7,7.166,7.166,0,0,1,1.833-.2h11.49l-.8,3.909H32.726a1.4,1.4,0,0,0-.894.226,1.644,1.644,0,0,0-.4.955l-.493,2.408c-.03.153-.051.274-.066.365a1.73,1.73,0,0,0-.023.272c0,.392.286.59.85.59H42.158L44.527,6.273a2.212,2.212,0,0,0,.045-.5.738.738,0,0,0-.224-.569A1.293,1.293,0,0,0,43.5,5H28.165l1.029-5H47.7a4.464,4.464,0,0,1,2.771.66,2.529,2.529,0,0,1,.8,2.067A9.743,9.743,0,0,1,51.054,4.5L47.21,23ZM19.492,23H3.532a4.386,4.386,0,0,1-2.7-.658A2.5,2.5,0,0,1,0,20.272,9.927,9.927,0,0,1,.224,18.5L3.13,4.5A6.49,6.49,0,0,1,4.762,1.09,5.008,5.008,0,0,1,8.315,0H24.276L23.113,5.59H10.372a1.672,1.672,0,0,0-1.029.228,1.94,1.94,0,0,0-.446,1L6.975,16c-.033.136-.054.234-.068.317a1.814,1.814,0,0,0-.021.274c0,.452.346.681,1.027.681H20.655L19.492,23Z" transform="translate(2.284)" fill="#f4ca64"/>
        <path id="goo" d="M15.939,28.379H0L1.011,23.6h13.14a1.344,1.344,0,0,0,.913-.238,1.871,1.871,0,0,0,.408-.909L19.166,4.783H10.69a1.347,1.347,0,0,0-.913.237,1.6,1.6,0,0,0-.369.87L7.62,14.426a2.323,2.323,0,0,0-.04.436c0,.419.3.631.894.631h6.532L14.072,20H4.743a3.809,3.809,0,0,1-2.351-.573,2.17,2.17,0,0,1-.719-1.8,8.4,8.4,0,0,1,.194-1.542L4.393,3.913A5.655,5.655,0,0,1,5.811.948,4.364,4.364,0,0,1,8.9,0H25.618L20.487,24.466a5.653,5.653,0,0,1-1.419,2.963A4.42,4.42,0,0,1,15.939,28.379ZM66.788,20H53.414a3.809,3.809,0,0,1-2.351-.573,2.17,2.17,0,0,1-.719-1.8,8.547,8.547,0,0,1,.194-1.542L53.064,3.913A5.668,5.668,0,0,1,54.483.948,4.364,4.364,0,0,1,57.574,0H70.948a3.873,3.873,0,0,1,2.409.573,2.2,2.2,0,0,1,.7,1.8,8.511,8.511,0,0,1-.194,1.542L71.336,16.085a5.655,5.655,0,0,1-1.419,2.965A4.422,4.422,0,0,1,66.788,20ZM59.323,4.783A1.363,1.363,0,0,0,58.448,5a1.536,1.536,0,0,0-.369.889l-1.672,8.142c-.024.1-.043.2-.058.276a1.563,1.563,0,0,0-.019.238c0,.367.288.553.855.553h7.7a1.709,1.709,0,0,0,1.011-.237,1.329,1.329,0,0,0,.427-.831l1.672-8.142a4.1,4.1,0,0,0,.077-.475c0-.419-.353-.631-1.05-.631ZM42.179,20H28.807a3.813,3.813,0,0,1-2.353-.573,2.17,2.17,0,0,1-.719-1.8,8.4,8.4,0,0,1,.194-1.542L28.457,3.913A5.655,5.655,0,0,1,29.876.948,4.361,4.361,0,0,1,32.965,0H46.339A3.884,3.884,0,0,1,48.75.573a2.207,2.207,0,0,1,.7,1.8,8.368,8.368,0,0,1-.194,1.542L46.728,16.085a5.641,5.641,0,0,1-1.419,2.965A4.422,4.422,0,0,1,42.179,20ZM34.715,4.783A1.37,1.37,0,0,0,33.84,5a1.529,1.529,0,0,0-.369.889L31.8,14.031c-.023.087-.042.178-.059.276a1.772,1.772,0,0,0-.019.238c0,.367.288.553.855.553h7.7a1.709,1.709,0,0,0,1.011-.237,1.322,1.322,0,0,0,.427-.831l1.672-8.142a3.928,3.928,0,0,0,.077-.475c0-.419-.353-.631-1.05-.631Z" transform="translate(0 32.643)" fill="#fffcf4"/>
      </g>
    </g>
  </g>
</svg>
